<svg width="83" height="83" viewBox="0 0 83 83" fill="none" xmlns="http://www.w3.org/2000/svg">
<rect x="1.375" y="1" width="81" height="81" rx="40.5" stroke="url(#paint0_linear_35_199)"/>
<rect x="1.375" y="1" width="81" height="81" rx="40.5" stroke="url(#paint1_linear_35_199)"/>
<rect x="11.375" y="11" width="61" height="61" rx="30.5" stroke="url(#paint2_linear_35_199)"/>
<rect x="11.375" y="11" width="61" height="61" rx="30.5" stroke="url(#paint3_linear_35_199)"/>
<path fill-rule="evenodd" clip-rule="evenodd" d="M26.5752 29.175C26.5752 28.4709 27.146 27.9 27.8502 27.9H45.7002C46.4044 27.9 46.9752 28.4709 46.9752 29.175C46.9752 29.8792 46.4044 30.45 45.7002 30.45H45.2752V53.825C45.2752 54.5292 44.7044 55.1 44.0002 55.1H41.4502C40.746 55.1 40.1752 54.5292 40.1752 53.825V49.575C40.1752 48.8709 39.6044 48.3 38.9002 48.3H34.6502C33.946 48.3 33.3752 48.8709 33.3752 49.575V53.825C33.3752 54.5292 32.8044 55.1 32.1002 55.1H27.8502C27.146 55.1 26.5752 54.5292 26.5752 53.825C26.5752 53.1209 27.146 52.55 27.8502 52.55H28.2752V30.45H27.8502C27.146 30.45 26.5752 29.8792 26.5752 29.175ZM31.6752 33.85C31.6752 33.3806 32.0558 33 32.5252 33H34.2252C34.6946 33 35.0752 33.3806 35.0752 33.85V35.55C35.0752 36.0195 34.6946 36.4 34.2252 36.4H32.5252C32.0558 36.4 31.6752 36.0195 31.6752 35.55V33.85ZM32.5252 39.8C32.0558 39.8 31.6752 40.1806 31.6752 40.65V42.35C31.6752 42.8195 32.0558 43.2 32.5252 43.2H34.2252C34.6946 43.2 35.0752 42.8195 35.0752 42.35V40.65C35.0752 40.1806 34.6946 39.8 34.2252 39.8H32.5252ZM38.4752 33.85C38.4752 33.3806 38.8558 33 39.3252 33H41.0252C41.4946 33 41.8752 33.3806 41.8752 33.85V35.55C41.8752 36.0195 41.4946 36.4 41.0252 36.4H39.3252C38.8558 36.4 38.4752 36.0195 38.4752 35.55V33.85ZM39.3252 39.8C38.8558 39.8 38.4752 40.1806 38.4752 40.65V42.35C38.4752 42.8195 38.8558 43.2 39.3252 43.2H41.0252C41.4946 43.2 41.8752 42.8195 41.8752 42.35V40.65C41.8752 40.1806 41.4946 39.8 41.0252 39.8H39.3252Z" fill="#A685FA"/>
<path fill-rule="evenodd" clip-rule="evenodd" d="M49.1002 34.7C48.396 34.7 47.8252 35.2709 47.8252 35.975V53.4C47.8252 54.3389 48.5863 55.1 49.5252 55.1H55.9002C56.6044 55.1 57.1752 54.5292 57.1752 53.825C57.1752 53.1209 56.6044 52.55 55.9002 52.55H55.4752V37.25H55.9002C56.6044 37.25 57.1752 36.6792 57.1752 35.975C57.1752 35.2709 56.6044 34.7 55.9002 34.7H49.1002ZM49.9502 40.65C49.9502 40.1806 50.3308 39.8 50.8002 39.8H52.5002C52.9696 39.8 53.3502 40.1806 53.3502 40.65V42.35C53.3502 42.8195 52.9696 43.2 52.5002 43.2H50.8002C50.3308 43.2 49.9502 42.8195 49.9502 42.35V40.65ZM50.8002 46.6C50.3308 46.6 49.9502 46.9806 49.9502 47.45V49.15C49.9502 49.6195 50.3308 50 50.8002 50H52.5002C52.9696 50 53.3502 49.6195 53.3502 49.15V47.45C53.3502 46.9806 52.9696 46.6 52.5002 46.6H50.8002Z" fill="#A685FA"/>
<defs>
<linearGradient id="paint0_linear_35_199" x1="7.625" y1="87" x2="86.625" y2="-5" gradientUnits="userSpaceOnUse">
<stop stop-color="#A685FA"/>
<stop offset="0.323723" stop-color="#A685FA" stop-opacity="0"/>
</linearGradient>
<linearGradient id="paint1_linear_35_199" x1="82.625" y1="-10" x2="7.625" y2="82.5" gradientUnits="userSpaceOnUse">
<stop stop-color="#A685FA"/>
<stop offset="0.576615" stop-color="#A685FA" stop-opacity="0"/>
</linearGradient>
<linearGradient id="paint2_linear_35_199" x1="4.125" y1="14" x2="72.625" y2="72.5" gradientUnits="userSpaceOnUse">
<stop stop-color="#A685FA"/>
<stop offset="0.323723" stop-color="#A685FA" stop-opacity="0"/>
</linearGradient>
<linearGradient id="paint3_linear_35_199" x1="85.125" y1="86.5" x2="13.125" y2="35.5" gradientUnits="userSpaceOnUse">
<stop stop-color="#A685FA"/>
<stop offset="0.576615" stop-color="#A685FA" stop-opacity="0"/>
</linearGradient>
</defs>
</svg>
