<svg width="27" height="27" viewBox="0 0 27 27" fill="none" xmlns="http://www.w3.org/2000/svg">
<path d="M16.5625 5.0625V2.95312M16.5625 5.0625V7.17188M16.5625 5.0625H11.8164M3.90625 11.3906V20.8828C3.90625 21.4423 4.12849 21.9788 4.52407 22.3744C4.91966 22.77 5.45618 22.9922 6.01562 22.9922H20.7812C21.3407 22.9922 21.8772 22.77 22.2728 22.3744C22.6684 21.9788 22.8906 21.4423 22.8906 20.8828V11.3906M3.90625 11.3906H22.8906M3.90625 11.3906V7.17188C3.90625 6.61243 4.12849 6.07591 4.52407 5.68032C4.91966 5.28474 5.45618 5.0625 6.01562 5.0625H8.125M22.8906 11.3906V7.17188C22.8906 6.61243 22.6684 6.07591 22.2728 5.68032C21.8772 5.28474 21.3407 5.0625 20.7812 5.0625H20.2539M8.125 2.95312V7.17188" stroke="white" stroke-width="1.5" stroke-linecap="round" stroke-linejoin="round"/>
</svg>
