<svg width="26" height="27" viewBox="0 0 26 27" fill="none" xmlns="http://www.w3.org/2000/svg">
<path d="M21.3828 11.3906C21.3828 16.0502 12.9453 24.0469 12.9453 24.0469C12.9453 24.0469 4.50781 16.0502 4.50781 11.3906C4.50781 9.15286 5.39676 7.00675 6.9791 5.42441C8.56144 3.84207 10.7075 2.95313 12.9453 2.95312C15.1831 2.95313 17.3292 3.84207 18.9115 5.42441C20.4939 7.00675 21.3828 9.15286 21.3828 11.3906Z" stroke="white" stroke-width="1.5"/>
<path d="M12.9453 12.4453C13.225 12.4453 13.4933 12.3342 13.6911 12.1364C13.8889 11.9386 14 11.6703 14 11.3906C14 11.1109 13.8889 10.8426 13.6911 10.6448C13.4933 10.4471 13.225 10.3359 12.9453 10.3359C12.6656 10.3359 12.3973 10.4471 12.1995 10.6448C12.0017 10.8426 11.8906 11.1109 11.8906 11.3906C11.8906 11.6703 12.0017 11.9386 12.1995 12.1364C12.3973 12.3342 12.6656 12.4453 12.9453 12.4453Z" fill="white" stroke="white" stroke-width="1.5" stroke-linecap="round" stroke-linejoin="round"/>
</svg>
