<?xml version="1.0" encoding="utf-8"?>
<svg xmlns="http://www.w3.org/2000/svg" viewBox="0 0 50 50" width="50" height="50" >
  <path d="M 25.095 48.475 C 11.842 48.475 1.095 37.728 1.095 24.475 L 25.095 24.475 C 28.125 24.475 26.219 48.475 25.095 48.475 Z" fill="#703BF7"/>
  <path d="M 1.095 0.475 C 14.348 0.475 25.095 11.222 25.095 24.475 C 25.095 26.597 1.095 25.262 1.095 24.475 L 1.095 0.475 Z" fill="#703BF7"/>
  <path d="M 25.095 48.475 C 38.348 48.475 49.095 37.728 49.095 24.475 L 25.095 24.475 L 25.095 48.475 Z" fill="#703BF7"/>
  <path d="M 49.095 24.475 C 49.095 11.222 38.348 0.475 25.095 0.475 L 25.095 24.475 C 25.095 27.18 49.095 26.534 49.095 24.475 Z" fill="#703BF7"/>
</svg>