<svg width="24" height="24" viewBox="0 0 24 24" fill="none" xmlns="http://www.w3.org/2000/svg">
<rect width="24" height="24" fill="white" fill-opacity="0.01"/>
<path fill-rule="evenodd" clip-rule="evenodd" d="M11.9994 4C10.0664 4 8.49938 5.567 8.49938 7.5C8.49938 9.433 10.0664 11 11.9994 11C13.9324 11 15.4994 9.433 15.4994 7.5C15.4994 5.567 13.9324 4 11.9994 4ZM6.49938 7.5C6.49938 4.46243 8.96181 2 11.9994 2C15.0369 2 17.4994 4.46243 17.4994 7.5C17.4994 10.5376 15.0369 13 11.9994 13C8.96181 13 6.49938 10.5376 6.49938 7.5ZM11.9992 16C11.9992 15.8207 11.9987 15.6736 11.9986 15.5528C11.9986 15.4829 11.9988 15.4218 11.9987 15.3685C11.9986 15.2543 11.9989 15.1754 11.9988 15.1211C11.999 15 11.9984 15 11.9984 15M11.9992 17L11.9928 17.0001C11.9847 17.0002 11.9706 17.0004 11.9509 17.0009C11.9116 17.0019 11.8499 17.004 11.7685 17.0083C11.6054 17.0171 11.364 17.0348 11.0642 17.071C10.4625 17.1434 9.63713 17.2885 8.74361 17.5767C6.94453 18.157 4.97732 19.2788 3.89262 21.4474C3.64556 21.9413 3.04485 22.1414 2.55091 21.8944C2.05697 21.6473 1.85684 21.0466 2.10391 20.5526C3.52019 17.7212 6.05346 16.343 8.12964 15.6733C9.17373 15.3365 10.1297 15.1691 10.8249 15.0853C11.1736 15.0433 11.4595 15.022 11.6617 15.0112C11.7628 15.0058 11.8432 15.003 11.9003 15.0015C11.9289 15.0008 11.9516 15.0004 11.9682 15.0002L11.9884 15L11.995 15L11.9984 15" fill="#A685FA"/>
<path d="M11.9988 15.1211C11.9989 15.1754 11.9986 15.2543 11.9987 15.3685C11.9988 15.4218 11.9986 15.4829 11.9986 15.5528C11.9987 15.6736 11.9992 15.8207 11.9992 16L11.9986 15.5528L11.9992 17L12.0044 17.0001C12.0126 17.0002 12.0267 17.0004 12.0463 17.0009C12.0857 17.0019 12.1474 17.004 12.2288 17.0083C12.3919 17.0171 12.6333 17.0348 12.9331 17.071C13.5348 17.1434 14.3602 17.2885 15.2537 17.5767C17.0528 18.157 19.02 19.2788 20.1047 21.4474C20.3517 21.9413 20.9524 22.1414 21.4464 21.8944C21.9403 21.6473 22.1404 21.0466 21.8934 20.5526C20.4771 17.7212 17.9438 16.343 15.8677 15.6733C14.8236 15.3365 13.8676 15.1691 13.1724 15.0853C12.8237 15.0433 12.5378 15.022 12.3356 15.0112C12.2345 15.0058 12.154 15.003 12.097 15.0015C12.0684 15.0008 12.0457 15.0004 12.0291 15.0002L12.0089 15L12.0023 15L11.9984 15L11.9988 15.1211Z" fill="#A685FA"/>
</svg>
