<svg width="83" height="83" viewBox="0 0 83 83" fill="none" xmlns="http://www.w3.org/2000/svg">
<rect x="1.125" y="1" width="81" height="81" rx="40.5" stroke="url(#paint0_linear_35_207)"/>
<rect x="1.125" y="1" width="81" height="81" rx="40.5" stroke="url(#paint1_linear_35_207)"/>
<rect x="11.125" y="11" width="61" height="61" rx="30.5" stroke="url(#paint2_linear_35_207)"/>
<rect x="11.125" y="11" width="61" height="61" rx="30.5" stroke="url(#paint3_linear_35_207)"/>
<path d="M41.625 27.6875C42.2118 27.6875 42.6875 28.1632 42.6875 28.75V31.9375C42.6875 32.5243 42.2118 33 41.625 33C41.0382 33 40.5625 32.5243 40.5625 31.9375V28.75C40.5625 28.1632 41.0382 27.6875 41.625 27.6875Z" fill="#A685FA"/>
<path d="M35.25 41.5C35.25 37.9792 38.1042 35.125 41.625 35.125C45.1458 35.125 48 37.9792 48 41.5C48 45.0208 45.1458 47.875 41.625 47.875C38.1042 47.875 35.25 45.0208 35.25 41.5Z" fill="#A685FA"/>
<path d="M51.392 33.2356C51.8069 32.8207 51.8069 32.148 51.392 31.733C50.9771 31.3181 50.3043 31.3181 49.8894 31.733L47.6355 33.9869C47.2205 34.4019 47.2205 35.0746 47.6355 35.4895C48.0504 35.9045 48.7232 35.9045 49.1381 35.4895L51.392 33.2356Z" fill="#A685FA"/>
<path d="M55.4375 41.5C55.4375 42.0868 54.9618 42.5625 54.375 42.5625H51.1875C50.6007 42.5625 50.125 42.0868 50.125 41.5C50.125 40.9132 50.6007 40.4375 51.1875 40.4375H54.375C54.9618 40.4375 55.4375 40.9132 55.4375 41.5Z" fill="#A685FA"/>
<path d="M49.8892 51.2669C50.3042 51.6818 50.9769 51.6818 51.3918 51.2669C51.8068 50.8519 51.8068 50.1792 51.3918 49.7643L49.1379 47.5104C48.723 47.0954 48.0503 47.0954 47.6353 47.5104C47.2204 47.9253 47.2204 48.598 47.6353 49.013L49.8892 51.2669Z" fill="#A685FA"/>
<path d="M41.625 50C42.2118 50 42.6875 50.4757 42.6875 51.0625V54.25C42.6875 54.8368 42.2118 55.3125 41.625 55.3125C41.0382 55.3125 40.5625 54.8368 40.5625 54.25V51.0625C40.5625 50.4757 41.0382 50 41.625 50Z" fill="#A685FA"/>
<path d="M35.6148 49.013C36.0297 48.598 36.0297 47.9253 35.6148 47.5104C35.1999 47.0954 34.5271 47.0954 34.1122 47.5104L31.8583 49.7643C31.4434 50.1792 31.4434 50.8519 31.8583 51.2669C32.2732 51.6818 32.946 51.6818 33.3609 51.2669L35.6148 49.013Z" fill="#A685FA"/>
<path d="M33.125 41.5C33.125 42.0868 32.6493 42.5625 32.0625 42.5625H28.875C28.2882 42.5625 27.8125 42.0868 27.8125 41.5C27.8125 40.9132 28.2882 40.4375 28.875 40.4375H32.0625C32.6493 40.4375 33.125 40.9132 33.125 41.5Z" fill="#A685FA"/>
<path d="M34.112 35.4895C34.527 35.9045 35.1997 35.9045 35.6146 35.4895C36.0296 35.0746 36.0296 34.4019 35.6146 33.9869L33.3607 31.733C32.9458 31.3181 32.2731 31.3181 31.8581 31.733C31.4432 32.148 31.4432 32.8207 31.8581 33.2356L34.112 35.4895Z" fill="#A685FA"/>
<defs>
<linearGradient id="paint0_linear_35_207" x1="7.375" y1="87" x2="86.375" y2="-5" gradientUnits="userSpaceOnUse">
<stop stop-color="#A685FA"/>
<stop offset="0.323723" stop-color="#A685FA" stop-opacity="0"/>
</linearGradient>
<linearGradient id="paint1_linear_35_207" x1="82.375" y1="-10" x2="7.375" y2="82.5" gradientUnits="userSpaceOnUse">
<stop stop-color="#A685FA"/>
<stop offset="0.576615" stop-color="#A685FA" stop-opacity="0"/>
</linearGradient>
<linearGradient id="paint2_linear_35_207" x1="3.875" y1="14" x2="72.375" y2="72.5" gradientUnits="userSpaceOnUse">
<stop stop-color="#A685FA"/>
<stop offset="0.323723" stop-color="#A685FA" stop-opacity="0"/>
</linearGradient>
<linearGradient id="paint3_linear_35_207" x1="84.875" y1="86.5" x2="12.875" y2="35.5" gradientUnits="userSpaceOnUse">
<stop stop-color="#A685FA"/>
<stop offset="0.576615" stop-color="#A685FA" stop-opacity="0"/>
</linearGradient>
</defs>
</svg>
