<svg width="34" height="34" viewBox="0 0 34 34" fill="none" xmlns="http://www.w3.org/2000/svg">
<path d="M4.89415 12.1058C6.88582 14.0975 10.115 14.0975 12.1066 12.1058C12.3514 11.8611 12.566 11.5976 12.7506 11.3201C13.6644 12.6941 15.2266 13.5996 17.0004 13.5996C18.7744 13.5996 20.3368 12.6938 21.2505 11.3196C21.4352 11.5973 21.65 11.8609 21.8949 12.1059C23.8866 14.0975 27.1157 14.0975 29.1074 12.1059C31.0991 10.1142 31.0991 6.88504 29.1074 4.89336L28.6099 4.39583C27.9722 3.75821 27.1074 3.39999 26.2057 3.39999H7.79578C6.89405 3.39999 6.02924 3.75821 5.39162 4.39583L4.89415 4.8933C2.90247 6.88498 2.90247 10.1141 4.89415 12.1058Z" fill="#A685FA"/>
<path d="M5.10039 15.3548C7.52798 16.5591 10.4621 16.3947 12.7514 14.8615C13.9659 15.6741 15.4274 16.1496 17.0004 16.1496C18.5735 16.1496 20.0352 15.674 21.2498 14.8612C23.5389 16.3946 26.4728 16.5592 28.9004 15.3552V28.05H29.3254C30.0296 28.05 30.6004 28.6208 30.6004 29.325C30.6004 30.0292 30.0296 30.6 29.3254 30.6H21.6754C20.9712 30.6 20.4004 30.0292 20.4004 29.325V23.375C20.4004 22.6708 19.8296 22.1 19.1254 22.1H14.8754C14.1712 22.1 13.6004 22.6708 13.6004 23.375V29.325C13.6004 30.0292 13.0296 30.6 12.3254 30.6H4.67539C3.97123 30.6 3.40039 30.0292 3.40039 29.325C3.40039 28.6208 3.97123 28.05 4.67539 28.05H5.10039V15.3548Z" fill="#A685FA"/>
</svg>
