<svg width="26" height="26" viewBox="0 0 26 26" fill="none" xmlns="http://www.w3.org/2000/svg">
<path d="M24.7843 1.22287C24.1593 0.584123 23.2343 0.347873 22.3718 0.597873L2.25928 6.40912C1.34928 6.66162 0.704275 7.38287 0.530525 8.29787C0.353025 9.23037 0.973025 10.4154 1.78303 10.9104L8.07178 14.7504C8.71677 15.1454 9.54928 15.0466 10.083 14.5116L17.2843 7.31037C17.6468 6.93412 18.2468 6.93412 18.6093 7.31037C18.9718 7.67162 18.9718 8.26037 18.6093 8.63537L11.3955 15.8366C10.8605 16.3716 10.7605 17.2016 11.1543 17.8479L14.9968 24.1604C15.4468 24.9091 16.2218 25.3354 17.0718 25.3354C17.1718 25.3354 17.2843 25.3354 17.3843 25.3216C18.3593 25.1979 19.1343 24.5341 19.4218 23.5966L25.3843 3.63537C25.6468 2.78537 25.4093 1.86037 24.7843 1.22287Z" fill="white"/>
<path opacity="0.4" d="M9.81449 21.928C10.1795 22.2942 10.1795 22.888 9.81449 23.2542L8.10699 24.9605C7.92448 25.1442 7.68449 25.2355 7.44449 25.2355C7.20448 25.2355 6.96449 25.1442 6.78199 24.9605C6.41573 24.5942 6.41573 24.0017 6.78199 23.6355L8.48823 21.928C8.85449 21.563 9.44824 21.563 9.81449 21.928ZM8.83486 17.193C9.19986 17.5592 9.19986 18.153 8.83486 18.5192L7.12736 20.2255C6.94486 20.4092 6.70486 20.5005 6.46486 20.5005C6.22486 20.5005 5.98486 20.4092 5.80236 20.2255C5.43611 19.8592 5.43611 19.2667 5.80236 18.9005L7.50861 17.193C7.87486 16.828 8.46861 16.828 8.83486 17.193ZM4.13336 15.7025C4.49836 16.0687 4.49836 16.6625 4.13336 17.0287L2.42586 18.735C2.24336 18.9187 2.00336 19.01 1.76336 19.01C1.52336 19.01 1.28336 18.9187 1.10086 18.735C0.734609 18.3687 0.734609 17.7762 1.10086 17.41L2.80711 15.7025C3.17336 15.3375 3.76711 15.3375 4.13336 15.7025Z" fill="white"/>
</svg>
