<svg width="54" height="54" viewBox="0 0 54 54" fill="none" xmlns="http://www.w3.org/2000/svg">
<path d="M40.3761 32.1233C39.5684 29.1956 37.8226 26.6137 35.4064 24.7738C32.9902 22.9338 30.037 21.9374 27 21.9374C23.963 21.9374 21.0098 22.9338 18.5936 24.7738C16.1774 26.6137 14.4315 29.1956 13.6239 32.1233L11.6993 39.1C11.3538 40.3527 11.3022 41.6682 11.5487 42.9441C11.7951 44.2199 12.333 45.4216 13.1202 46.4555C13.9075 47.4893 14.9229 48.3273 16.0872 48.9042C17.2516 49.4811 18.5335 49.7812 19.833 49.7813H34.167C35.4665 49.7812 36.7483 49.4811 37.9127 48.9042C39.0771 48.3273 40.0925 47.4893 40.8798 46.4555C41.667 45.4216 42.2048 44.2199 42.4513 42.9441C42.6978 41.6682 42.6462 40.3527 42.3007 39.1L40.3761 32.1233ZM38.1948 44.4104C37.7245 45.0329 37.1156 45.5374 36.4165 45.8838C35.7174 46.2303 34.9472 46.4091 34.167 46.4063H19.833C19.0533 46.4063 18.2841 46.2262 17.5855 45.8801C16.8868 45.5339 16.2776 45.0311 15.8052 44.4108C15.3329 43.7905 15.0102 43.0695 14.8623 42.3039C14.7144 41.5384 14.7454 40.7491 14.9527 39.9974L16.8773 33.0208C17.4885 30.8052 18.8097 28.8513 20.6382 27.4589C22.4668 26.0665 24.7016 25.3125 27 25.3125C29.2983 25.3125 31.5332 26.0665 33.3617 27.4589C35.1903 28.8513 36.5115 30.8052 37.1227 33.0208L39.0473 39.9974C39.2576 40.7488 39.29 41.5387 39.142 42.3048C38.9941 43.0708 38.6697 43.7918 38.1948 44.4108V44.4104ZM15.409 24.2905C15.7026 22.4554 15.3132 20.4908 14.3121 18.7573C13.311 17.0238 11.804 15.7043 10.0683 15.041C8.20957 14.3311 6.31366 14.4442 4.72804 15.3592C1.5759 17.1792 0.746386 21.6647 2.87928 25.3582C3.88007 27.0917 5.38712 28.4115 7.12282 29.0745C7.89166 29.3742 8.70895 29.5305 9.53415 29.5355C10.5622 29.5392 11.5729 29.2703 12.4631 28.7562C14.0478 27.841 15.094 26.2551 15.409 24.2905ZM12.0762 23.757C11.9253 24.6988 11.4634 25.4361 10.7754 25.8333C10.0874 26.2305 9.21795 26.2617 8.32674 25.9216C7.31287 25.5344 6.41617 24.735 5.80171 23.6707C4.62046 21.6246 4.90122 19.1566 6.41554 18.2821C6.79625 18.0661 7.22736 17.9548 7.66503 17.9595C8.07558 17.9639 8.48189 18.0431 8.864 18.1934C9.87787 18.5807 10.7746 19.3801 11.389 20.4444C12.0035 21.5087 12.2474 22.6854 12.0762 23.757ZM15.7745 17.2987C16.9729 18.2566 18.3413 18.7555 19.7252 18.7554C20.1397 18.7552 20.553 18.7107 20.958 18.6224C24.5147 17.8492 26.6712 13.8296 25.7653 9.662C25.3402 7.70597 24.3068 5.98989 22.8556 4.82963C21.3015 3.58721 19.4607 3.11692 17.6721 3.50589C14.1155 4.27898 11.959 8.2986 12.8649 12.4662C13.29 14.4223 14.3234 16.1384 15.7745 17.2987ZM18.3889 6.8039C18.5529 6.76857 18.7202 6.75089 18.888 6.75116C19.5153 6.75116 20.1605 6.99659 20.7481 7.46635C21.5958 8.14398 22.2063 9.17853 22.4673 10.3795C22.9693 12.6887 21.9498 14.9535 20.2411 15.3249C19.4648 15.4937 18.6269 15.2587 17.8821 14.6631C17.0345 13.9854 16.4239 12.9508 16.163 11.75C15.6608 9.44009 16.6803 7.17536 18.3889 6.8039ZM49.2719 15.3592C47.6869 14.4442 45.7901 14.3311 43.9316 15.041C42.1959 15.7041 40.6889 17.0238 39.6881 18.7573C38.6873 20.4908 38.2978 22.4558 38.5912 24.2905C38.9057 26.2551 39.9518 27.841 41.5371 28.7562C42.4273 29.2704 43.438 29.5394 44.466 29.5355C45.2912 29.5305 46.1085 29.3742 46.8774 29.0745C48.6131 28.4115 50.1201 27.0917 51.1209 25.3582C53.2536 21.6647 52.4241 17.1792 49.2719 15.3592ZM48.1983 23.6707C47.5838 24.735 46.6871 25.5344 45.6732 25.9216C44.7824 26.262 43.9127 26.2307 43.2248 25.8333C42.5368 25.4359 42.0752 24.6988 41.924 23.757C41.7525 22.6854 41.9964 21.5091 42.6109 20.4453C43.2255 19.3816 44.1221 18.5817 45.136 18.1943C45.518 18.0439 45.9244 17.9646 46.3349 17.9601C46.7726 17.9554 47.2037 18.0666 47.5844 18.2826C49.0987 19.1564 49.3798 21.6241 48.1983 23.6707ZM33.042 18.6224C33.447 18.7107 33.8603 18.7552 34.2748 18.7554C35.6585 18.7554 37.0275 18.2566 38.2254 17.2987C39.6766 16.1385 40.71 14.4223 41.1351 12.4663C42.041 8.29871 39.8845 4.27908 36.3279 3.506C34.5394 3.11724 32.6985 3.58721 31.1444 4.82973C29.6931 5.98989 28.6597 7.70608 28.2347 9.662C27.3287 13.8296 29.4852 17.8492 33.042 18.6224ZM31.5327 10.379C31.7936 9.178 32.4042 8.14303 33.2519 7.46582C33.8395 6.99606 34.4847 6.75064 35.112 6.75064C35.2798 6.75036 35.4471 6.76804 35.6111 6.80337C37.3197 7.17483 38.3391 9.44009 37.8372 11.7488C37.5761 12.9498 36.9655 13.9847 36.1181 14.6621C35.3734 15.2575 34.536 15.4925 33.7591 15.3239C32.0501 14.9529 31.0307 12.6879 31.5327 10.379Z" fill="#A685FA"/>
</svg>
