<svg width="54" height="54" viewBox="0 0 54 54" fill="none" xmlns="http://www.w3.org/2000/svg">
<path d="M48.9375 40.5H42.1875V35.4375H47.25C47.5064 35.4375 47.7595 35.379 47.9899 35.2665C48.2203 35.154 48.4221 34.9905 48.5799 34.7884C48.7377 34.5863 48.8473 34.3509 48.9005 34.1C48.9537 33.8492 48.9491 33.5895 48.8869 33.3408L42.1369 6.34077C42.0454 5.97588 41.8347 5.65202 41.5381 5.42061C41.2416 5.18919 40.8762 5.06351 40.5 5.06351C40.1238 5.06351 39.7584 5.18919 39.4619 5.42061C39.1653 5.65202 38.9546 5.97588 38.8631 6.34077L32.1131 33.3408C32.0509 33.5895 32.0463 33.8492 32.0995 34.1C32.1527 34.3509 32.2623 34.5863 32.4201 34.7884C32.5779 34.9905 32.7797 35.154 33.0101 35.2665C33.2405 35.379 33.4936 35.4375 33.75 35.4375H38.8125V40.5H25.3125V37.125H27C27.4476 37.125 27.8768 36.9472 28.1932 36.6307C28.5097 36.3143 28.6875 35.885 28.6875 35.4375C28.6875 34.9899 28.5097 34.5607 28.1932 34.2442C27.8768 33.9278 27.4476 33.75 27 33.75H25.3125V30.375H27C27.4476 30.375 27.8768 30.1972 28.1932 29.8807C28.5097 29.5643 28.6875 29.135 28.6875 28.6875C28.6875 28.2399 28.5097 27.8107 28.1932 27.4942C27.8768 27.1778 27.4476 27 27 27H8.4375C7.98995 27 7.56073 27.1778 7.24426 27.4942C6.92779 27.8107 6.75 28.2399 6.75 28.6875C6.75 29.135 6.92779 29.5643 7.24426 29.8807C7.56073 30.1972 7.98995 30.375 8.4375 30.375H10.125V33.75H8.4375C7.98995 33.75 7.56073 33.9278 7.24426 34.2442C6.92779 34.5607 6.75 34.9899 6.75 35.4375C6.75 35.885 6.92779 36.3143 7.24426 36.6307C7.56073 36.9472 7.98995 37.125 8.4375 37.125H10.125V40.5H5.0625C4.61495 40.5 4.18572 40.6778 3.86926 40.9942C3.55279 41.3107 3.375 41.7399 3.375 42.1875C3.375 42.635 3.55279 43.0643 3.86926 43.3807C4.18572 43.6972 4.61495 43.875 5.0625 43.875H48.9375C49.3851 43.875 49.8143 43.6972 50.1307 43.3807C50.4472 43.0643 50.625 42.635 50.625 42.1875C50.625 41.7399 50.4472 41.3107 50.1307 40.9942C49.8143 40.6778 49.3851 40.5 48.9375 40.5ZM21.9375 40.5H13.5V37.125H21.9375V40.5ZM21.9375 33.75H13.5V30.375H21.9375V33.75ZM24.4688 20.25C25.6369 20.25 26.7788 19.9036 27.7501 19.2546C28.7214 18.6056 29.4784 17.6832 29.9254 16.604C30.3724 15.5247 30.4894 14.3372 30.2615 13.1915C30.0336 12.0458 29.4711 10.9934 28.6451 10.1674C27.8191 9.34138 26.7667 8.77887 25.621 8.55097C24.4753 8.32308 23.2878 8.44004 22.2085 8.88707C21.1293 9.3341 20.2069 10.0911 19.5579 11.0624C18.9089 12.0337 18.5625 13.1756 18.5625 14.3437C18.5625 15.9102 19.1848 17.4124 20.2924 18.5201C21.4 19.6277 22.9023 20.25 24.4688 20.25ZM24.4688 11.8125C24.9694 11.8125 25.4588 11.9609 25.875 12.2391C26.2913 12.5172 26.6157 12.9125 26.8073 13.3751C26.9989 13.8376 27.049 14.3465 26.9514 14.8376C26.8537 15.3286 26.6126 15.7796 26.2586 16.1336C25.9046 16.4876 25.4536 16.7287 24.9626 16.8264C24.4716 16.924 23.9626 16.8739 23.5001 16.6823C23.0376 16.4907 22.6422 16.1663 22.3641 15.75C22.086 15.3338 21.9375 14.8444 21.9375 14.3437C21.9375 13.6724 22.2042 13.0286 22.6789 12.5539C23.1536 12.0792 23.7974 11.8125 24.4688 11.8125Z" fill="#A685FA"/>
</svg>
