<svg width="64" height="64" viewBox="0 0 64 64" fill="none" xmlns="http://www.w3.org/2000/svg">
<g filter="url(#filter0_i_49_16)">
<path d="M26.6215 53.4613L21.0482 42.9386L10.4722 37.312L13.3602 34.44L22.5655 36.0053L30.6988 27.872L10.6935 19.3333L14.3948 15.6533L38.7282 19.8266L47.0482 11.456C47.7948 10.7075 48.7104 10.3333 49.7948 10.3333C50.8793 10.3333 51.7948 10.7075 52.5415 11.456C53.2917 12.2044 53.6668 13.1182 53.6668 14.1973C53.6668 15.2764 53.2926 16.1902 52.5442 16.9386L44.1575 25.272L48.3335 49.592L44.6162 53.3093L36.1122 33.304L27.9788 41.4373L29.5068 50.576L26.6215 53.4613Z" fill="#A685FA"/>
</g>
<defs>
<filter id="filter0_i_49_16" x="0" y="0" width="64" height="68" filterUnits="userSpaceOnUse" color-interpolation-filters="sRGB">
<feFlood flood-opacity="0" result="BackgroundImageFix"/>
<feBlend mode="normal" in="SourceGraphic" in2="BackgroundImageFix" result="shape"/>
<feColorMatrix in="SourceAlpha" type="matrix" values="0 0 0 0 0 0 0 0 0 0 0 0 0 0 0 0 0 0 127 0" result="hardAlpha"/>
<feOffset dy="4"/>
<feGaussianBlur stdDeviation="2"/>
<feComposite in2="hardAlpha" operator="arithmetic" k2="-1" k3="1"/>
<feColorMatrix type="matrix" values="0 0 0 0 0 0 0 0 0 0 0 0 0 0 0 0 0 0 0.25 0"/>
<feBlend mode="normal" in2="shape" result="effect1_innerShadow_49_16"/>
</filter>
</defs>
</svg>
