<svg width="64" height="64" viewBox="0 0 64 64" fill="none" xmlns="http://www.w3.org/2000/svg">
<path fill-rule="evenodd" clip-rule="evenodd" d="M5.3335 14C5.86393 14 6.37264 14.2107 6.74771 14.5858C7.12278 14.9609 7.3335 15.4696 7.3335 16V40.6667H60.3815V41.7147L60.3788 42.6667V48C60.3788 48.5304 60.1681 49.0391 59.7931 49.4142C59.418 49.7893 58.9093 50 58.3788 50C57.8484 50 57.3397 49.7893 56.9646 49.4142C56.5896 49.0391 56.3788 48.5304 56.3788 48V44.6667H7.3335V48C7.3335 48.5304 7.12278 49.0391 6.74771 49.4142C6.37264 49.7893 5.86393 50 5.3335 50C4.80306 50 4.29436 49.7893 3.91928 49.4142C3.54421 49.0391 3.3335 48.5304 3.3335 48V16C3.3335 15.4696 3.54421 14.9609 3.91928 14.5858C4.29436 14.2107 4.80306 14 5.3335 14Z" fill="#A685FA"/>
<path opacity="0.5" d="M18.6667 36C20.4348 36 22.1305 35.2976 23.3807 34.0474C24.631 32.7972 25.3333 31.1015 25.3333 29.3334C25.3333 27.5652 24.631 25.8696 23.3807 24.6193C22.1305 23.3691 20.4348 22.6667 18.6667 22.6667C16.8986 22.6667 15.2029 23.3691 13.9526 24.6193C12.7024 25.8696 12 27.5652 12 29.3334C12 31.1015 12.7024 32.7972 13.9526 34.0474C15.2029 35.2976 16.8986 36 18.6667 36ZM59.632 31.5974C58.9704 29.7067 57.8914 27.9894 56.475 26.573C55.0586 25.1566 53.3413 24.0776 51.4507 23.416C49.312 22.6667 46.6507 22.6667 41.3333 22.6667H41.328C39.2 22.6667 36.4267 22.6667 35.5707 22.9654C34.8146 23.23 34.1278 23.6616 33.5613 24.228C32.9949 24.7945 32.5633 25.4812 32.2987 26.2374C32 27.0934 32 28.16 32 30.2854V40.6667H60.3813C60.3787 36.0347 60.328 33.5894 59.6347 31.5974" fill="#A685FA"/>
</svg>
