<svg width="160" height="168" viewBox="0 0 160 168" fill="none" xmlns="http://www.w3.org/2000/svg">
<g filter="url(#filter0_i_49_24)">
<mask id="path-1-inside-1_49_24" fill="white">
<path fill-rule="evenodd" clip-rule="evenodd" d="M130 15C130 6.71573 123.284 0 115 0H45C36.7157 0 30 6.71573 30 15V53C30 61.2843 23.2843 68 15 68C6.71573 68 0 74.7157 0 83V153C0 161.284 6.71573 168 15 168H145C153.284 168 160 161.284 160 153V83C160 74.7157 153.284 68 145 68C136.716 68 130 61.2843 130 53V15Z"/>
</mask>
<path d="M145 69C145.552 69 146 68.5523 146 68C146 67.4477 145.552 67 145 67V69ZM145 67C144.448 67 144 67.4477 144 68C144 68.5523 144.448 69 145 69V67ZM15 69C15.5523 69 16 68.5523 16 68C16 67.4477 15.5523 67 15 67V69ZM15 67C14.4477 67 14 67.4477 14 68C14 68.5523 14.4477 69 15 69V67ZM142.267 66.7335C141.725 66.6263 141.199 66.9786 141.092 67.5204C140.984 68.0622 141.337 68.5883 141.878 68.6955L142.267 66.7335ZM136.109 66.3045C136.568 66.6117 137.189 66.4887 137.497 66.0298C137.804 65.5709 137.681 64.9498 137.222 64.6425L136.109 66.3045ZM133.357 60.7779C133.05 60.319 132.429 60.196 131.97 60.5033C131.511 60.8105 131.388 61.4316 131.696 61.8906L133.357 60.7779ZM129.305 56.1215C129.412 56.6633 129.938 57.0156 130.48 56.9084C131.021 56.8012 131.374 56.2752 131.266 55.7334L129.305 56.1215ZM131 49.8333C131 49.2811 130.552 48.8333 130 48.8333C129.448 48.8333 129 49.2811 129 49.8333H131ZM129 43.5C129 44.0523 129.448 44.5 130 44.5C130.552 44.5 131 44.0523 131 43.5H129ZM131 37.1667C131 36.6144 130.552 36.1667 130 36.1667C129.448 36.1667 129 36.6144 129 37.1667H131ZM129 30.8333C129 31.3856 129.448 31.8333 130 31.8333C130.552 31.8333 131 31.3856 131 30.8333H129ZM131 24.5C131 23.9477 130.552 23.5 130 23.5C129.448 23.5 129 23.9477 129 24.5H131ZM129 18.1667C129 18.7189 129.448 19.1667 130 19.1667C130.552 19.1667 131 18.7189 131 18.1667H129ZM130.695 11.8785C130.588 11.3367 130.062 10.9844 129.52 11.0916C128.979 11.1988 128.626 11.7249 128.734 12.2666L130.695 11.8785ZM126.643 7.22209C126.95 7.68102 127.571 7.80398 128.03 7.49673C128.489 7.18949 128.612 6.56838 128.304 6.10945L126.643 7.22209ZM123.891 1.69555C123.432 1.3883 122.811 1.51127 122.503 1.9702C122.196 2.42913 122.319 3.05024 122.778 3.35749L123.891 1.69555ZM117.733 1.2665C118.275 1.37368 118.801 1.02136 118.908 0.47958C119.016 -0.0622044 118.663 -0.588295 118.122 -0.695477L117.733 1.2665ZM112.083 -1C111.531 -1 111.083 -0.552285 111.083 0C111.083 0.552285 111.531 1 112.083 1V-1ZM106.25 1C106.802 1 107.25 0.552285 107.25 0C107.25 -0.552285 106.802 -1 106.25 -1V1ZM100.417 -1C99.8644 -1 99.4167 -0.552285 99.4167 0C99.4167 0.552285 99.8644 1 100.417 1V-1ZM94.5833 1C95.1356 1 95.5833 0.552285 95.5833 0C95.5833 -0.552285 95.1356 -1 94.5833 -1V1ZM88.75 -1C88.1977 -1 87.75 -0.552285 87.75 0C87.75 0.552285 88.1977 1 88.75 1V-1ZM82.9167 1C83.4689 1 83.9167 0.552285 83.9167 0C83.9167 -0.552285 83.4689 -1 82.9167 -1V1ZM77.0833 -1C76.5311 -1 76.0833 -0.552285 76.0833 0C76.0833 0.552285 76.5311 1 77.0833 1V-1ZM71.25 1C71.8023 1 72.25 0.552285 72.25 0C72.25 -0.552285 71.8023 -1 71.25 -1V1ZM65.4167 -1C64.8644 -1 64.4167 -0.552285 64.4167 0C64.4167 0.552285 64.8644 1 65.4167 1V-1ZM59.5833 1C60.1356 1 60.5833 0.552285 60.5833 0C60.5833 -0.552285 60.1356 -1 59.5833 -1V1ZM53.75 -1C53.1977 -1 52.75 -0.552285 52.75 0C52.75 0.552285 53.1977 1 53.75 1V-1ZM47.9167 1C48.469 1 48.9167 0.552285 48.9167 0C48.9167 -0.552285 48.469 -1 47.9167 -1V1ZM41.8785 -0.695477C41.3367 -0.588296 40.9844 -0.0622051 41.0916 0.47958C41.1988 1.02136 41.7249 1.37368 42.2666 1.2665L41.8785 -0.695477ZM37.2221 3.35749C37.681 3.05024 37.804 2.42913 37.4967 1.9702C37.1895 1.51127 36.5684 1.3883 36.1094 1.69555L37.2221 3.35749ZM31.6956 6.10944C31.3883 6.56837 31.5113 7.18948 31.9702 7.49673C32.4291 7.80398 33.0502 7.68101 33.3575 7.22208L31.6956 6.10944ZM31.2665 12.2666C31.3737 11.7249 31.0214 11.1988 30.4796 11.0916C29.9378 10.9844 29.4117 11.3367 29.3045 11.8785L31.2665 12.2666ZM29 18.1667C29 18.719 29.4477 19.1667 30 19.1667C30.5523 19.1667 31 18.719 31 18.1667H29ZM31 24.5C31 23.9477 30.5523 23.5 30 23.5C29.4477 23.5 29 23.9477 29 24.5H31ZM29 30.8333C29 31.3856 29.4477 31.8333 30 31.8333C30.5523 31.8333 31 31.3856 31 30.8333H29ZM31 37.1667C31 36.6144 30.5523 36.1667 30 36.1667C29.4477 36.1667 29 36.6144 29 37.1667H31ZM29 43.5C29 44.0523 29.4477 44.5 30 44.5C30.5523 44.5 31 44.0523 31 43.5H29ZM31 49.8333C31 49.2811 30.5523 48.8333 30 48.8333C29.4477 48.8333 29 49.2811 29 49.8333H31ZM28.7335 55.7334C28.6263 56.2751 28.9786 56.8012 29.5204 56.9084C30.0622 57.0156 30.5883 56.6633 30.6955 56.1215L28.7335 55.7334ZM28.3044 61.8906C28.6117 61.4316 28.4887 60.8105 28.0298 60.5033C27.5709 60.196 26.9498 60.319 26.6425 60.7779L28.3044 61.8906ZM22.7779 64.6425C22.319 64.9498 22.196 65.5709 22.5033 66.0298C22.8105 66.4887 23.4316 66.6117 23.8906 66.3045L22.7779 64.6425ZM18.1215 68.6955C18.6633 68.5883 19.0156 68.0622 18.9084 67.5204C18.8012 66.9786 18.2751 66.6263 17.7334 66.7335L18.1215 68.6955ZM11.8785 67.3045C11.3367 67.4117 10.9844 67.9378 11.0916 68.4796C11.1988 69.0214 11.7249 69.3737 12.2666 69.2665L11.8785 67.3045ZM7.22208 71.3575C7.68102 71.0502 7.80398 70.4291 7.49673 69.9702C7.18949 69.5113 6.56838 69.3883 6.10945 69.6955L7.22208 71.3575ZM1.69555 74.1094C1.3883 74.5684 1.51127 75.1895 1.9702 75.4967C2.42913 75.804 3.05024 75.681 3.35749 75.2221L1.69555 74.1094ZM1.2665 80.2666C1.37368 79.7249 1.02136 79.1988 0.47958 79.0916C-0.0622044 78.9844 -0.588295 79.3367 -0.695477 79.8785L1.2665 80.2666ZM-1 85.9167C-1 86.4689 -0.552285 86.9167 0 86.9167C0.552285 86.9167 1 86.4689 1 85.9167H-1ZM1 91.75C1 91.1977 0.552285 90.75 0 90.75C-0.552285 90.75 -1 91.1977 -1 91.75H1ZM-1 97.5833C-1 98.1356 -0.552285 98.5833 0 98.5833C0.552285 98.5833 1 98.1356 1 97.5833H-1ZM1 103.417C1 102.864 0.552285 102.417 0 102.417C-0.552285 102.417 -1 102.864 -1 103.417H1ZM-1 109.25C-1 109.802 -0.552285 110.25 0 110.25C0.552285 110.25 1 109.802 1 109.25H-1ZM1 115.083C1 114.531 0.552285 114.083 0 114.083C-0.552285 114.083 -1 114.531 -1 115.083H1ZM-1 120.917C-1 121.469 -0.552285 121.917 0 121.917C0.552285 121.917 1 121.469 1 120.917H-1ZM1 126.75C1 126.198 0.552285 125.75 0 125.75C-0.552285 125.75 -1 126.198 -1 126.75H1ZM-1 132.583C-1 133.136 -0.552285 133.583 0 133.583C0.552285 133.583 1 133.136 1 132.583H-1ZM1 138.417C1 137.864 0.552285 137.417 0 137.417C-0.552285 137.417 -1 137.864 -1 138.417H1ZM-1 144.25C-1 144.802 -0.552285 145.25 0 145.25C0.552285 145.25 1 144.802 1 144.25H-1ZM1 150.083C1 149.531 0.552285 149.083 0 149.083C-0.552285 149.083 -1 149.531 -1 150.083H1ZM-0.695477 156.122C-0.588296 156.663 -0.0622049 157.016 0.47958 156.908C1.02136 156.801 1.37368 156.275 1.2665 155.733L-0.695477 156.122ZM3.35749 160.778C3.05024 160.319 2.42913 160.196 1.9702 160.503C1.51127 160.811 1.3883 161.432 1.69555 161.891L3.35749 160.778ZM6.10945 166.304C6.56838 166.612 7.18949 166.489 7.49673 166.03C7.80398 165.571 7.68102 164.95 7.22208 164.643L6.10945 166.304ZM12.2666 166.734C11.7249 166.626 11.1988 166.979 11.0916 167.52C10.9844 168.062 11.3367 168.588 11.8785 168.695L12.2666 166.734ZM17.9545 169C18.5068 169 18.9545 168.552 18.9545 168C18.9545 167.448 18.5068 167 17.9545 167V169ZM23.8636 167C23.3114 167 22.8636 167.448 22.8636 168C22.8636 168.552 23.3114 169 23.8636 169V167ZM29.7727 169C30.325 169 30.7727 168.552 30.7727 168C30.7727 167.448 30.325 167 29.7727 167V169ZM35.6818 167C35.1295 167 34.6818 167.448 34.6818 168C34.6818 168.552 35.1295 169 35.6818 169V167ZM41.5909 169C42.1432 169 42.5909 168.552 42.5909 168C42.5909 167.448 42.1432 167 41.5909 167V169ZM47.5 167C46.9477 167 46.5 167.448 46.5 168C46.5 168.552 46.9477 169 47.5 169V167ZM53.4091 169C53.9614 169 54.4091 168.552 54.4091 168C54.4091 167.448 53.9614 167 53.4091 167V169ZM59.3182 167C58.7659 167 58.3182 167.448 58.3182 168C58.3182 168.552 58.7659 169 59.3182 169V167ZM65.2273 169C65.7796 169 66.2273 168.552 66.2273 168C66.2273 167.448 65.7796 167 65.2273 167V169ZM71.1364 167C70.5841 167 70.1364 167.448 70.1364 168C70.1364 168.552 70.5841 169 71.1364 169V167ZM77.0455 169C77.5977 169 78.0455 168.552 78.0455 168C78.0455 167.448 77.5977 167 77.0455 167V169ZM82.9546 167C82.4023 167 81.9546 167.448 81.9546 168C81.9546 168.552 82.4023 169 82.9546 169V167ZM88.8636 169C89.4159 169 89.8636 168.552 89.8636 168C89.8636 167.448 89.4159 167 88.8636 167V169ZM94.7727 167C94.2204 167 93.7727 167.448 93.7727 168C93.7727 168.552 94.2204 169 94.7727 169V167ZM100.682 169C101.234 169 101.682 168.552 101.682 168C101.682 167.448 101.234 167 100.682 167V169ZM106.591 167C106.039 167 105.591 167.448 105.591 168C105.591 168.552 106.039 169 106.591 169V167ZM112.5 169C113.052 169 113.5 168.552 113.5 168C113.5 167.448 113.052 167 112.5 167V169ZM118.409 167C117.857 167 117.409 167.448 117.409 168C117.409 168.552 117.857 169 118.409 169V167ZM124.318 169C124.87 169 125.318 168.552 125.318 168C125.318 167.448 124.87 167 124.318 167V169ZM130.227 167C129.675 167 129.227 167.448 129.227 168C129.227 168.552 129.675 169 130.227 169V167ZM136.136 169C136.689 169 137.136 168.552 137.136 168C137.136 167.448 136.689 167 136.136 167V169ZM142.045 167C141.493 167 141.045 167.448 141.045 168C141.045 168.552 141.493 169 142.045 169V167ZM148.122 168.695C148.663 168.588 149.016 168.062 148.908 167.52C148.801 166.979 148.275 166.626 147.733 166.734L148.122 168.695ZM152.778 164.643C152.319 164.95 152.196 165.571 152.503 166.03C152.811 166.489 153.432 166.612 153.891 166.304L152.778 164.643ZM158.304 161.891C158.612 161.432 158.489 160.811 158.03 160.503C157.571 160.196 156.95 160.319 156.643 160.778L158.304 161.891ZM158.734 155.733C158.626 156.275 158.979 156.801 159.52 156.908C160.062 157.016 160.588 156.663 160.695 156.122L158.734 155.733ZM161 150.083C161 149.531 160.552 149.083 160 149.083C159.448 149.083 159 149.531 159 150.083H161ZM159 144.25C159 144.802 159.448 145.25 160 145.25C160.552 145.25 161 144.802 161 144.25H159ZM161 138.417C161 137.864 160.552 137.417 160 137.417C159.448 137.417 159 137.864 159 138.417H161ZM159 132.583C159 133.136 159.448 133.583 160 133.583C160.552 133.583 161 133.136 161 132.583H159ZM161 126.75C161 126.198 160.552 125.75 160 125.75C159.448 125.75 159 126.198 159 126.75H161ZM159 120.917C159 121.469 159.448 121.917 160 121.917C160.552 121.917 161 121.469 161 120.917H159ZM161 115.083C161 114.531 160.552 114.083 160 114.083C159.448 114.083 159 114.531 159 115.083H161ZM159 109.25C159 109.802 159.448 110.25 160 110.25C160.552 110.25 161 109.802 161 109.25H159ZM161 103.417C161 102.864 160.552 102.417 160 102.417C159.448 102.417 159 102.864 159 103.417H161ZM159 97.5833C159 98.1356 159.448 98.5833 160 98.5833C160.552 98.5833 161 98.1356 161 97.5833H159ZM161 91.75C161 91.1977 160.552 90.75 160 90.75C159.448 90.75 159 91.1977 159 91.75H161ZM159 85.9167C159 86.469 159.448 86.9167 160 86.9167C160.552 86.9167 161 86.469 161 85.9167H159ZM160.695 79.8785C160.588 79.3367 160.062 78.9844 159.52 79.0916C158.979 79.1988 158.626 79.7249 158.734 80.2666L160.695 79.8785ZM156.643 75.2221C156.95 75.681 157.571 75.804 158.03 75.4967C158.489 75.1895 158.612 74.5684 158.304 74.1094L156.643 75.2221ZM153.891 69.6955C153.432 69.3883 152.811 69.5113 152.503 69.9702C152.196 70.4291 152.319 71.0502 152.778 71.3575L153.891 69.6955ZM147.733 69.2665C148.275 69.3737 148.801 69.0214 148.908 68.4796C149.016 67.9378 148.663 67.4117 148.122 67.3045L147.733 69.2665ZM145 67C144.064 67 143.15 66.9082 142.267 66.7335L141.878 68.6955C142.889 68.8954 143.933 69 145 69V67ZM137.222 64.6425C135.695 63.6201 134.38 62.3051 133.357 60.7779L131.696 61.8906C132.863 63.6349 134.365 65.1366 136.109 66.3045L137.222 64.6425ZM131.266 55.7334C131.092 54.8501 131 53.9363 131 53H129C129 54.0673 129.105 55.1111 129.305 56.1215L131.266 55.7334ZM131 53V49.8333H129V53H131ZM131 43.5V37.1667H129V43.5H131ZM131 30.8333V24.5H129V30.8333H131ZM131 18.1667V15H129V18.1667H131ZM131 15C131 13.9327 130.895 12.8889 130.695 11.8785L128.734 12.2666C128.908 13.1499 129 14.0637 129 15H131ZM128.304 6.10945C127.137 4.36506 125.635 2.86339 123.891 1.69555L122.778 3.35749C124.305 4.37989 125.62 5.69493 126.643 7.22209L128.304 6.10945ZM118.122 -0.695477C117.111 -0.89536 116.067 -1 115 -1V1C115.936 1 116.85 1.09177 117.733 1.2665L118.122 -0.695477ZM115 -1H112.083V1H115V-1ZM106.25 -1H100.417V1H106.25V-1ZM94.5833 -1H88.75V1H94.5833V-1ZM82.9167 -1H77.0833V1H82.9167V-1ZM71.25 -1H65.4167V1H71.25V-1ZM59.5833 -1H53.75V1H59.5833V-1ZM47.9167 -1H45V1H47.9167V-1ZM45 -1C43.9327 -1 42.8889 -0.89536 41.8785 -0.695477L42.2666 1.2665C43.1499 1.09177 44.0637 1 45 1V-1ZM36.1094 1.69555C34.3651 2.86339 32.8634 4.36505 31.6956 6.10944L33.3575 7.22208C34.3799 5.69493 35.6949 4.37989 37.2221 3.35749L36.1094 1.69555ZM29.3045 11.8785C29.1046 12.8889 29 13.9327 29 15H31C31 14.0637 31.0918 13.1499 31.2665 12.2666L29.3045 11.8785ZM29 15V18.1667H31V15H29ZM29 24.5V30.8333H31V24.5H29ZM29 37.1667V43.5H31V37.1667H29ZM29 49.8333V53H31V49.8333H29ZM29 53C29 53.9363 28.9082 54.8501 28.7335 55.7334L30.6955 56.1215C30.8954 55.1111 31 54.0673 31 53H29ZM26.6425 60.7779C25.6201 62.3051 24.3051 63.6201 22.7779 64.6425L23.8906 66.3045C25.6349 65.1366 27.1366 63.6349 28.3044 61.8906L26.6425 60.7779ZM17.7334 66.7335C16.8501 66.9082 15.9363 67 15 67V69C16.0673 69 17.1111 68.8954 18.1215 68.6955L17.7334 66.7335ZM15 67C13.9327 67 12.8889 67.1046 11.8785 67.3045L12.2666 69.2665C13.1499 69.0918 14.0637 69 15 69V67ZM6.10945 69.6955C4.36506 70.8634 2.86339 72.3651 1.69555 74.1094L3.35749 75.2221C4.37989 73.6949 5.69493 72.3799 7.22208 71.3575L6.10945 69.6955ZM-0.695477 79.8785C-0.89536 80.8889 -1 81.9327 -1 83H1C1 82.0637 1.09177 81.1499 1.2665 80.2666L-0.695477 79.8785ZM-1 83V85.9167H1V83H-1ZM-1 91.75V97.5833H1V91.75H-1ZM-1 103.417V109.25H1V103.417H-1ZM-1 115.083V120.917H1V115.083H-1ZM-1 126.75V132.583H1V126.75H-1ZM-1 138.417V144.25H1V138.417H-1ZM-1 150.083V153H1V150.083H-1ZM-1 153C-1 154.067 -0.89536 155.111 -0.695477 156.122L1.2665 155.733C1.09177 154.85 1 153.936 1 153H-1ZM1.69555 161.891C2.86339 163.635 4.36505 165.137 6.10945 166.304L7.22208 164.643C5.69493 163.62 4.37989 162.305 3.35749 160.778L1.69555 161.891ZM11.8785 168.695C12.8889 168.895 13.9327 169 15 169V167C14.0637 167 13.1499 166.908 12.2666 166.734L11.8785 168.695ZM15 169H17.9545V167H15V169ZM23.8636 169H29.7727V167H23.8636V169ZM35.6818 169H41.5909V167H35.6818V169ZM47.5 169H53.4091V167H47.5V169ZM59.3182 169H65.2273V167H59.3182V169ZM71.1364 169H77.0455V167H71.1364V169ZM82.9546 169H88.8636V167H82.9546V169ZM94.7727 169H100.682V167H94.7727V169ZM106.591 169H112.5V167H106.591V169ZM118.409 169H124.318V167H118.409V169ZM130.227 169H136.136V167H130.227V169ZM142.045 169H145V167H142.045V169ZM145 169C146.067 169 147.111 168.895 148.122 168.695L147.733 166.734C146.85 166.908 145.936 167 145 167V169ZM153.891 166.304C155.635 165.137 157.137 163.635 158.304 161.891L156.643 160.778C155.62 162.305 154.305 163.62 152.778 164.643L153.891 166.304ZM160.695 156.122C160.895 155.111 161 154.067 161 153H159C159 153.936 158.908 154.85 158.734 155.733L160.695 156.122ZM161 153V150.083H159V153H161ZM161 144.25V138.417H159V144.25H161ZM161 132.583V126.75H159V132.583H161ZM161 120.917V115.083H159V120.917H161ZM161 109.25V103.417H159V109.25H161ZM161 97.5833V91.75H159V97.5833H161ZM161 85.9167V83H159V85.9167H161ZM161 83C161 81.9327 160.895 80.8889 160.695 79.8785L158.734 80.2666C158.908 81.1499 159 82.0637 159 83H161ZM158.304 74.1094C157.137 72.3651 155.635 70.8634 153.891 69.6955L152.778 71.3575C154.305 72.3799 155.62 73.6949 156.643 75.2221L158.304 74.1094ZM148.122 67.3045C147.111 67.1046 146.067 67 145 67V69C145.936 69 146.85 69.0918 147.733 69.2665L148.122 67.3045ZM145 70C146.105 70 147 69.1046 147 68C147 66.8954 146.105 66 145 66V70ZM145 66C143.895 66 143 66.8954 143 68C143 69.1046 143.895 70 145 70V66ZM15 70C16.1046 70 17 69.1046 17 68C17 66.8954 16.1046 66 15 66V70ZM15 66C13.8954 66 13 66.8954 13 68C13 69.1046 13.8954 70 15 70V66ZM142.461 65.7525C141.377 65.5382 140.325 66.2428 140.111 67.3264C139.896 68.4099 140.601 69.4621 141.684 69.6765L142.461 65.7525ZM135.553 67.1354C136.471 67.7499 137.713 67.504 138.328 66.5861C138.942 65.6683 138.696 64.426 137.778 63.8115L135.553 67.1354ZM134.188 60.2216C133.574 59.3037 132.332 59.0578 131.414 59.6723C130.496 60.2868 130.25 61.529 130.865 62.4469L134.188 60.2216ZM128.324 56.3156C128.538 57.3991 129.59 58.1038 130.674 57.8894C131.757 57.675 132.462 56.6229 132.247 55.5393L128.324 56.3156ZM132 49.8333C132 48.7288 131.105 47.8333 130 47.8333C128.895 47.8333 128 48.7288 128 49.8333H132ZM128 43.5C128 44.6046 128.895 45.5 130 45.5C131.105 45.5 132 44.6046 132 43.5H128ZM132 37.1667C132 36.0621 131.105 35.1667 130 35.1667C128.895 35.1667 128 36.0621 128 37.1667H132ZM128 30.8333C128 31.9379 128.895 32.8333 130 32.8333C131.105 32.8333 132 31.9379 132 30.8333H128ZM132 24.5C132 23.3954 131.105 22.5 130 22.5C128.895 22.5 128 23.3954 128 24.5H132ZM128 18.1667C128 19.2712 128.895 20.1667 130 20.1667C131.105 20.1667 132 19.2712 132 18.1667H128ZM131.676 11.6844C131.462 10.6009 130.41 9.89623 129.326 10.1106C128.243 10.325 127.538 11.3771 127.753 12.4607L131.676 11.6844ZM125.812 7.7784C126.426 8.69627 127.668 8.9422 128.586 8.3277C129.504 7.71321 129.75 6.47099 129.135 5.55313L125.812 7.7784ZM124.447 0.864582C123.529 0.250089 122.287 0.496017 121.672 1.41388C121.058 2.33174 121.304 3.57396 122.222 4.18846L124.447 0.864582ZM117.539 2.24749C118.623 2.46185 119.675 1.75722 119.889 0.673649C120.104 -0.40992 119.399 -1.4621 118.316 -1.67646L117.539 2.24749ZM112.083 -2C110.979 -2 110.083 -1.10457 110.083 0C110.083 1.10457 110.979 2 112.083 2V-2ZM106.25 2C107.355 2 108.25 1.10457 108.25 0C108.25 -1.10457 107.355 -2 106.25 -2V2ZM100.417 -2C99.3121 -2 98.4167 -1.10457 98.4167 0C98.4167 1.10457 99.3121 2 100.417 2V-2ZM94.5833 2C95.6879 2 96.5833 1.10457 96.5833 0C96.5833 -1.10457 95.6879 -2 94.5833 -2V2ZM88.75 -2C87.6454 -2 86.75 -1.10457 86.75 0C86.75 1.10457 87.6454 2 88.75 2V-2ZM82.9167 2C84.0212 2 84.9167 1.10457 84.9167 0C84.9167 -1.10457 84.0212 -2 82.9167 -2V2ZM77.0833 -2C75.9788 -2 75.0833 -1.10457 75.0833 0C75.0833 1.10457 75.9788 2 77.0833 2V-2ZM71.25 2C72.3546 2 73.25 1.10457 73.25 0C73.25 -1.10457 72.3546 -2 71.25 -2V2ZM65.4167 -2C64.3121 -2 63.4167 -1.10457 63.4167 0C63.4167 1.10457 64.3121 2 65.4167 2V-2ZM59.5833 2C60.6879 2 61.5833 1.10457 61.5833 0C61.5833 -1.10457 60.6879 -2 59.5833 -2V2ZM53.75 -2C52.6454 -2 51.75 -1.10457 51.75 0C51.75 1.10457 52.6454 2 53.75 2V-2ZM47.9167 2C49.0212 2 49.9167 1.10457 49.9167 0C49.9167 -1.10457 49.0212 -2 47.9167 -2V2ZM41.6844 -1.67647C40.6009 -1.4621 39.8962 -0.409921 40.1106 0.673648C40.325 1.75722 41.3771 2.46185 42.4607 2.24749L41.6844 -1.67647ZM37.7784 4.18846C38.6963 3.57396 38.9422 2.33174 38.3277 1.41388C37.7132 0.496017 36.471 0.250088 35.5531 0.864581L37.7784 4.18846ZM30.8646 5.55312C30.2501 6.47099 30.496 7.71321 31.4139 8.3277C32.3317 8.94219 33.574 8.69627 34.1885 7.7784L30.8646 5.55312ZM32.2475 12.4607C32.4618 11.3771 31.7572 10.325 30.6736 10.1106C29.5901 9.89623 28.5379 10.6009 28.3235 11.6844L32.2475 12.4607ZM28 18.1667C28 19.2712 28.8954 20.1667 30 20.1667C31.1046 20.1667 32 19.2712 32 18.1667H28ZM32 24.5C32 23.3954 31.1046 22.5 30 22.5C28.8954 22.5 28 23.3954 28 24.5H32ZM28 30.8333C28 31.9379 28.8954 32.8333 30 32.8333C31.1046 32.8333 32 31.9379 32 30.8333H28ZM32 37.1667C32 36.0621 31.1046 35.1667 30 35.1667C28.8954 35.1667 28 36.0621 28 37.1667H32ZM28 43.5C28 44.6046 28.8954 45.5 30 45.5C31.1046 45.5 32 44.6046 32 43.5H28ZM32 49.8333C32 48.7288 31.1046 47.8333 30 47.8333C28.8954 47.8333 28 48.7288 28 49.8333H32ZM27.7525 55.5393C27.5382 56.6229 28.2428 57.675 29.3264 57.8894C30.4099 58.1038 31.4621 57.3991 31.6765 56.3156L27.7525 55.5393ZM29.1354 62.4469C29.7499 61.529 29.504 60.2868 28.5861 59.6723C27.6683 59.0578 26.426 59.3037 25.8115 60.2216L29.1354 62.4469ZM22.2216 63.8115C21.3037 64.426 21.0578 65.6683 21.6723 66.5861C22.2868 67.504 23.529 67.7499 24.4469 67.1354L22.2216 63.8115ZM18.3156 69.6765C19.3991 69.4621 20.1038 68.4099 19.8894 67.3263C19.675 66.2428 18.6229 65.5381 17.5393 65.7525L18.3156 69.6765ZM11.6844 66.3235C10.6009 66.5379 9.89623 67.5901 10.1106 68.6736C10.325 69.7572 11.3771 70.4618 12.4607 70.2475L11.6844 66.3235ZM7.7784 72.1885C8.69627 71.574 8.9422 70.3317 8.3277 69.4139C7.71321 68.496 6.47099 68.2501 5.55313 68.8646L7.7784 72.1885ZM0.864582 73.5531C0.250089 74.471 0.496017 75.7132 1.41388 76.3277C2.33174 76.9422 3.57396 76.6963 4.18846 75.7784L0.864582 73.5531ZM2.24749 80.4607C2.46185 79.3771 1.75722 78.325 0.673649 78.1106C-0.40992 77.8962 -1.4621 78.6009 -1.67646 79.6844L2.24749 80.4607ZM-2 85.9167C-2 87.0212 -1.10457 87.9167 0 87.9167C1.10457 87.9167 2 87.0212 2 85.9167H-2ZM2 91.75C2 90.6454 1.10457 89.75 0 89.75C-1.10457 89.75 -2 90.6454 -2 91.75H2ZM-2 97.5833C-2 98.6879 -1.10457 99.5833 0 99.5833C1.10457 99.5833 2 98.6879 2 97.5833H-2ZM2 103.417C2 102.312 1.10457 101.417 0 101.417C-1.10457 101.417 -2 102.312 -2 103.417H2ZM-2 109.25C-2 110.355 -1.10457 111.25 0 111.25C1.10457 111.25 2 110.355 2 109.25H-2ZM2 115.083C2 113.979 1.10457 113.083 0 113.083C-1.10457 113.083 -2 113.979 -2 115.083H2ZM-2 120.917C-2 122.021 -1.10457 122.917 0 122.917C1.10457 122.917 2 122.021 2 120.917H-2ZM2 126.75C2 125.645 1.10457 124.75 0 124.75C-1.10457 124.75 -2 125.645 -2 126.75H2ZM-2 132.583C-2 133.688 -1.10457 134.583 0 134.583C1.10457 134.583 2 133.688 2 132.583H-2ZM2 138.417C2 137.312 1.10457 136.417 0 136.417C-1.10457 136.417 -2 137.312 -2 138.417H2ZM-2 144.25C-2 145.355 -1.10457 146.25 0 146.25C1.10457 146.25 2 145.355 2 144.25H-2ZM2 150.083C2 148.979 1.10457 148.083 0 148.083C-1.10457 148.083 -2 148.979 -2 150.083H2ZM-1.67646 156.316C-1.4621 157.399 -0.409921 158.104 0.673649 157.889C1.75722 157.675 2.46185 156.623 2.24749 155.539L-1.67646 156.316ZM4.18846 160.222C3.57396 159.304 2.33174 159.058 1.41388 159.672C0.496018 160.287 0.250089 161.529 0.864583 162.447L4.18846 160.222ZM5.55313 167.135C6.47099 167.75 7.71321 167.504 8.3277 166.586C8.94219 165.668 8.69627 164.426 7.7784 163.812L5.55313 167.135ZM12.4607 165.753C11.3771 165.538 10.325 166.243 10.1106 167.326C9.89623 168.41 10.6009 169.462 11.6844 169.676L12.4607 165.753ZM17.9545 170C19.0591 170 19.9545 169.105 19.9545 168C19.9545 166.895 19.0591 166 17.9545 166V170ZM23.8636 166C22.7591 166 21.8636 166.895 21.8636 168C21.8636 169.105 22.7591 170 23.8636 170V166ZM29.7727 170C30.8773 170 31.7727 169.105 31.7727 168C31.7727 166.895 30.8773 166 29.7727 166V170ZM35.6818 166C34.5772 166 33.6818 166.895 33.6818 168C33.6818 169.105 34.5772 170 35.6818 170V166ZM41.5909 170C42.6955 170 43.5909 169.105 43.5909 168C43.5909 166.895 42.6955 166 41.5909 166V170ZM47.5 166C46.3954 166 45.5 166.895 45.5 168C45.5 169.105 46.3954 170 47.5 170V166ZM53.4091 170C54.5137 170 55.4091 169.105 55.4091 168C55.4091 166.895 54.5137 166 53.4091 166V170ZM59.3182 166C58.2136 166 57.3182 166.895 57.3182 168C57.3182 169.105 58.2136 170 59.3182 170V166ZM65.2273 170C66.3318 170 67.2273 169.105 67.2273 168C67.2273 166.895 66.3318 166 65.2273 166V170ZM71.1364 166C70.0318 166 69.1364 166.895 69.1364 168C69.1364 169.105 70.0318 170 71.1364 170V166ZM77.0455 170C78.15 170 79.0455 169.105 79.0455 168C79.0455 166.895 78.15 166 77.0455 166V170ZM82.9546 166C81.85 166 80.9546 166.895 80.9546 168C80.9546 169.105 81.85 170 82.9546 170V166ZM88.8636 170C89.9682 170 90.8636 169.105 90.8636 168C90.8636 166.895 89.9682 166 88.8636 166V170ZM94.7727 166C93.6682 166 92.7727 166.895 92.7727 168C92.7727 169.105 93.6682 170 94.7727 170V166ZM100.682 170C101.786 170 102.682 169.105 102.682 168C102.682 166.895 101.786 166 100.682 166V170ZM106.591 166C105.486 166 104.591 166.895 104.591 168C104.591 169.105 105.486 170 106.591 170V166ZM112.5 170C113.605 170 114.5 169.105 114.5 168C114.5 166.895 113.605 166 112.5 166V170ZM118.409 166C117.305 166 116.409 166.895 116.409 168C116.409 169.105 117.305 170 118.409 170V166ZM124.318 170C125.423 170 126.318 169.105 126.318 168C126.318 166.895 125.423 166 124.318 166V170ZM130.227 166C129.123 166 128.227 166.895 128.227 168C128.227 169.105 129.123 170 130.227 170V166ZM136.136 170C137.241 170 138.136 169.105 138.136 168C138.136 166.895 137.241 166 136.136 166V170ZM142.045 166C140.941 166 140.045 166.895 140.045 168C140.045 169.105 140.941 170 142.045 170V166ZM148.316 169.676C149.399 169.462 150.104 168.41 149.889 167.326C149.675 166.243 148.623 165.538 147.539 165.753L148.316 169.676ZM152.222 163.812C151.304 164.426 151.058 165.668 151.672 166.586C152.287 167.504 153.529 167.75 154.447 167.135L152.222 163.812ZM159.135 162.447C159.75 161.529 159.504 160.287 158.586 159.672C157.668 159.058 156.426 159.304 155.812 160.222L159.135 162.447ZM157.753 155.539C157.538 156.623 158.243 157.675 159.326 157.889C160.41 158.104 161.462 157.399 161.676 156.316L157.753 155.539ZM162 150.083C162 148.979 161.105 148.083 160 148.083C158.895 148.083 158 148.979 158 150.083H162ZM158 144.25C158 145.355 158.895 146.25 160 146.25C161.105 146.25 162 145.355 162 144.25H158ZM162 138.417C162 137.312 161.105 136.417 160 136.417C158.895 136.417 158 137.312 158 138.417H162ZM158 132.583C158 133.688 158.895 134.583 160 134.583C161.105 134.583 162 133.688 162 132.583H158ZM162 126.75C162 125.645 161.105 124.75 160 124.75C158.895 124.75 158 125.645 158 126.75H162ZM158 120.917C158 122.021 158.895 122.917 160 122.917C161.105 122.917 162 122.021 162 120.917H158ZM162 115.083C162 113.979 161.105 113.083 160 113.083C158.895 113.083 158 113.979 158 115.083H162ZM158 109.25C158 110.355 158.895 111.25 160 111.25C161.105 111.25 162 110.355 162 109.25H158ZM162 103.417C162 102.312 161.105 101.417 160 101.417C158.895 101.417 158 102.312 158 103.417H162ZM158 97.5833C158 98.6879 158.895 99.5833 160 99.5833C161.105 99.5833 162 98.6879 162 97.5833H158ZM162 91.75C162 90.6454 161.105 89.75 160 89.75C158.895 89.75 158 90.6454 158 91.75H162ZM158 85.9167C158 87.0212 158.895 87.9167 160 87.9167C161.105 87.9167 162 87.0212 162 85.9167H158ZM161.676 79.6844C161.462 78.6009 160.41 77.8962 159.326 78.1106C158.243 78.325 157.538 79.3771 157.753 80.4607L161.676 79.6844ZM155.812 75.7784C156.426 76.6963 157.668 76.9422 158.586 76.3277C159.504 75.7132 159.75 74.471 159.135 73.5531L155.812 75.7784ZM154.447 68.8646C153.529 68.2501 152.287 68.496 151.672 69.4139C151.058 70.3317 151.304 71.574 152.222 72.1885L154.447 68.8646ZM147.539 70.2475C148.623 70.4619 149.675 69.7572 149.889 68.6737C150.104 67.5901 149.399 66.5379 148.316 66.3235L147.539 70.2475ZM145 66C144.129 66 143.28 65.9147 142.461 65.7525L141.684 69.6765C142.758 69.8889 143.867 70 145 70V66ZM137.778 63.8115C136.36 62.8619 135.138 61.6401 134.188 60.2216L130.865 62.4469C132.105 64.2999 133.7 65.8949 135.553 67.1354L137.778 63.8115ZM132.247 55.5393C132.085 54.7196 132 53.8708 132 53H128C128 54.1328 128.111 55.2416 128.324 56.3156L132.247 55.5393ZM132 53V49.8333H128V53H132ZM132 43.5V37.1667H128V43.5H132ZM132 30.8333V24.5H128V30.8333H132ZM132 18.1667V15H128V18.1667H132ZM132 15C132 13.8672 131.889 12.7584 131.676 11.6844L127.753 12.4607C127.915 13.2804 128 14.1292 128 15H132ZM129.135 5.55313C127.895 3.70012 126.3 2.10514 124.447 0.864582L122.222 4.18846C123.64 5.13814 124.862 6.35987 125.812 7.7784L129.135 5.55313ZM118.316 -1.67646C117.242 -1.88892 116.133 -2 115 -2V2C115.871 2 116.72 2.08533 117.539 2.24749L118.316 -1.67646ZM115 -2H112.083V2H115V-2ZM106.25 -2H100.417V2H106.25V-2ZM94.5833 -2H88.75V2H94.5833V-2ZM82.9167 -2H77.0833V2H82.9167V-2ZM71.25 -2H65.4167V2H71.25V-2ZM59.5833 -2H53.75V2H59.5833V-2ZM47.9167 -2H45V2H47.9167V-2ZM45 -2C43.8672 -2 42.7584 -1.88892 41.6844 -1.67647L42.4607 2.24749C43.2804 2.08533 44.1292 2 45 2V-2ZM35.5531 0.864581C33.7001 2.10514 32.1051 3.70011 30.8646 5.55312L34.1885 7.7784C35.1381 6.35987 36.3599 5.13814 37.7784 4.18846L35.5531 0.864581ZM28.3235 11.6844C28.1111 12.7584 28 13.8672 28 15H32C32 14.1292 32.0853 13.2804 32.2475 12.4607L28.3235 11.6844ZM28 15V18.1667H32V15H28ZM28 24.5V30.8333H32V24.5H28ZM28 37.1667V43.5H32V37.1667H28ZM28 49.8333V53H32V49.8333H28ZM28 53C28 53.8708 27.9147 54.7196 27.7525 55.5393L31.6765 56.3156C31.8889 55.2416 32 54.1328 32 53H28ZM25.8115 60.2216C24.8619 61.6401 23.6401 62.8619 22.2216 63.8115L24.4469 67.1354C26.2999 65.8949 27.8949 64.2999 29.1354 62.4469L25.8115 60.2216ZM17.5393 65.7525C16.7196 65.9147 15.8708 66 15 66V70C16.1328 70 17.2416 69.8889 18.3156 69.6765L17.5393 65.7525ZM15 66C13.8672 66 12.7584 66.1111 11.6844 66.3235L12.4607 70.2475C13.2804 70.0853 14.1292 70 15 70V66ZM5.55313 68.8646C3.70012 70.1051 2.10514 71.7001 0.864582 73.5531L4.18846 75.7784C5.13814 74.3599 6.35987 73.1381 7.7784 72.1885L5.55313 68.8646ZM-1.67646 79.6844C-1.88892 80.7584 -2 81.8672 -2 83H2C2 82.1292 2.08533 81.2804 2.24749 80.4607L-1.67646 79.6844ZM-2 83V85.9167H2V83H-2ZM-2 91.75V97.5833H2V91.75H-2ZM-2 103.417V109.25H2V103.417H-2ZM-2 115.083V120.917H2V115.083H-2ZM-2 126.75V132.583H2V126.75H-2ZM-2 138.417V144.25H2V138.417H-2ZM-2 150.083V153H2V150.083H-2ZM-2 153C-2 154.133 -1.88892 155.242 -1.67646 156.316L2.24749 155.539C2.08533 154.72 2 153.871 2 153H-2ZM0.864583 162.447C2.10514 164.3 3.70011 165.895 5.55313 167.135L7.7784 163.812C6.35987 162.862 5.13814 161.64 4.18846 160.222L0.864583 162.447ZM11.6844 169.676C12.7584 169.889 13.8672 170 15 170V166C14.1292 166 13.2804 165.915 12.4607 165.753L11.6844 169.676ZM15 170H17.9545V166H15V170ZM23.8636 170H29.7727V166H23.8636V170ZM35.6818 170H41.5909V166H35.6818V170ZM47.5 170H53.4091V166H47.5V170ZM59.3182 170H65.2273V166H59.3182V170ZM71.1364 170H77.0455V166H71.1364V170ZM82.9546 170H88.8636V166H82.9546V170ZM94.7727 170H100.682V166H94.7727V170ZM106.591 170H112.5V166H106.591V170ZM118.409 170H124.318V166H118.409V170ZM130.227 170H136.136V166H130.227V170ZM142.045 170H145V166H142.045V170ZM145 170C146.133 170 147.242 169.889 148.316 169.676L147.539 165.753C146.72 165.915 145.871 166 145 166V170ZM154.447 167.135C156.3 165.895 157.895 164.3 159.135 162.447L155.812 160.222C154.862 161.64 153.64 162.862 152.222 163.812L154.447 167.135ZM161.676 156.316C161.889 155.242 162 154.133 162 153H158C158 153.871 157.915 154.72 157.753 155.539L161.676 156.316ZM162 153V150.083H158V153H162ZM162 144.25V138.417H158V144.25H162ZM162 132.583V126.75H158V132.583H162ZM162 120.917V115.083H158V120.917H162ZM162 109.25V103.417H158V109.25H162ZM162 97.5833V91.75H158V97.5833H162ZM162 85.9167V83H158V85.9167H162ZM162 83C162 81.8672 161.889 80.7584 161.676 79.6844L157.753 80.4607C157.915 81.2804 158 82.1292 158 83H162ZM159.135 73.5531C157.895 71.7001 156.3 70.1051 154.447 68.8646L152.222 72.1885C153.64 73.1381 154.862 74.3599 155.812 75.7784L159.135 73.5531ZM148.316 66.3235C147.242 66.1111 146.133 66 145 66V70C145.871 70 146.72 70.0853 147.539 70.2475L148.316 66.3235Z" fill="#A685FA" mask="url(#path-1-inside-1_49_24)"/>
</g>
<defs>
<filter id="filter0_i_49_24" x="0" y="0" width="160" height="172" filterUnits="userSpaceOnUse" color-interpolation-filters="sRGB">
<feFlood flood-opacity="0" result="BackgroundImageFix"/>
<feBlend mode="normal" in="SourceGraphic" in2="BackgroundImageFix" result="shape"/>
<feColorMatrix in="SourceAlpha" type="matrix" values="0 0 0 0 0 0 0 0 0 0 0 0 0 0 0 0 0 0 127 0" result="hardAlpha"/>
<feOffset dy="4"/>
<feGaussianBlur stdDeviation="2"/>
<feComposite in2="hardAlpha" operator="arithmetic" k2="-1" k3="1"/>
<feColorMatrix type="matrix" values="0 0 0 0 0 0 0 0 0 0 0 0 0 0 0 0 0 0 0.25 0"/>
<feBlend mode="normal" in2="shape" result="effect1_innerShadow_49_24"/>
</filter>
</defs>
</svg>
